<svg xmlns="http://www.w3.org/2000/svg" version="1.2" baseProfile="tiny" width="128.64" height="128.64" viewBox="33 33 134 134"><circle cx="100" cy="100" r="60" stroke-width="10" stroke-linecap="round" stroke-linejoin="round" stroke="#071017" fill="none" ></circle><circle cx="100" cy="100" r="60" stroke-width="4" stroke="black" fill="rgb(255,161,255)" fill-opacity="1" ></circle><g transform="translate(0,0)" ><g transform="scale(1)" ><path d="m 90,125 c 0,-4.1 -3.4,-7.5 -7.5,-7.5 -4.1,0 -7.5,3.4 -7.5,7.5 0,4.1 3.4,7.5 7.5,7.5 4.1,0 7.5,-3.4 7.5,-7.5 z m 35,0 c 0,-4.1 -3.4,-7.5 -7.5,-7.5 -4.1,0 -7.5,3.4 -7.5,7.5 0,4.1 3.4,7.5 7.5,7.5 4.1,0 7.5,-3.4 7.5,-7.5 z m -35,0 20,0 m 15,0 5,0 0,-20 0,-20 -20,0 -20,0 0,20 -20,0 0,20 5,0" stroke-width="3" stroke="black" fill="rgb(239, 239, 239)" ></path><path d="m 95,90 0,15 10,0 0,-15 z" stroke-width="2" stroke="black" fill="none" ></path></g></g></svg>