<svg xmlns="http://www.w3.org/2000/svg" version="1.2" baseProfile="tiny" width="119.04" height="128.64" viewBox="38 23 124 134"><path d="M 155,150 C 155,50 115,30 100,30 85,30 45,50 45,150 Z" stroke-width="10" stroke-linecap="round" stroke-linejoin="round" stroke="#071017" fill="none" ></path><path d="M 155,150 C 155,50 115,30 100,30 85,30 45,50 45,150" stroke-width="4" stroke="black" fill="rgb(128,224,255)" fill-opacity="1" ></path><path d="M 100,30 C 90,30 80,35 68.65625,50 l 62.6875,0 C 120,35 110,30 100,30" stroke-width="4" stroke="none" fill="black" ></path><path d="m 108,100 h 10  m -36,0 H 92  M 82,90 H 56 v 20 h 26 z  m 36,0 v 20 h 26 V 90 Z  m -26,0 v 20 h 16 V 90 Z" stroke-width="3" stroke="black" fill="black" ></path></svg>